<?xml version="1.0" standalone="no"?><svg xmlns="http://www.w3.org/2000/svg" viewBox="0 0 1440 320"><path fill="#1c75bc" fill-opacity="1" d="M0,160L16,160C32,160,64,160,96,165.3C128,171,160,181,192,192C224,203,256,213,288,208C320,203,352,181,384,170.7C416,160,448,160,480,170.7C512,181,544,203,576,186.7C608,171,640,117,672,96C704,75,736,85,768,112C800,139,832,181,864,202.7C896,224,928,224,960,192C992,160,1024,96,1056,74.7C1088,53,1120,75,1152,117.3C1184,160,1216,224,1248,213.3C1280,203,1312,117,1344,117.3C1376,117,1408,203,1424,245.3L1440,288L1440,0L1424,0C1408,0,1376,0,1344,0C1312,0,1280,0,1248,0C1216,0,1184,0,1152,0C1120,0,1088,0,1056,0C1024,0,992,0,960,0C928,0,896,0,864,0C832,0,800,0,768,0C736,0,704,0,672,0C640,0,608,0,576,0C544,0,512,0,480,0C448,0,416,0,384,0C352,0,320,0,288,0C256,0,224,0,192,0C160,0,128,0,96,0C64,0,32,0,16,0L0,0Z"></path></svg>