<?xml version="1.0" standalone="no"?><svg xmlns="http://www.w3.org/2000/svg" viewBox="0 0 1440 320"><path fill="#1c75bc" fill-opacity="1" d="M0,192L12.6,165.3C25.3,139,51,85,76,69.3C101.1,53,126,75,152,85.3C176.8,96,202,96,227,122.7C252.6,149,278,203,303,234.7C328.4,267,354,277,379,266.7C404.2,256,429,224,455,213.3C480,203,505,213,531,197.3C555.8,181,581,139,606,128C631.6,117,657,139,682,154.7C707.4,171,733,181,758,181.3C783.2,181,808,171,834,165.3C858.9,160,884,160,909,176C934.7,192,960,224,985,213.3C1010.5,203,1036,149,1061,154.7C1086.3,160,1112,224,1137,218.7C1162.1,213,1187,139,1213,90.7C1237.9,43,1263,21,1288,32C1313.7,43,1339,85,1364,96C1389.5,107,1415,85,1427,74.7L1440,64L1440,0L1427.4,0C1414.7,0,1389,0,1364,0C1338.9,0,1314,0,1288,0C1263.2,0,1238,0,1213,0C1187.4,0,1162,0,1137,0C1111.6,0,1086,0,1061,0C1035.8,0,1011,0,985,0C960,0,935,0,909,0C884.2,0,859,0,834,0C808.4,0,783,0,758,0C732.6,0,707,0,682,0C656.8,0,632,0,606,0C581.1,0,556,0,531,0C505.3,0,480,0,455,0C429.5,0,404,0,379,0C353.7,0,328,0,303,0C277.9,0,253,0,227,0C202.1,0,177,0,152,0C126.3,0,101,0,76,0C50.5,0,25,0,13,0L0,0Z"></path></svg>